<svg xmlns="http://www.w3.org/2000/svg" viewBox="0 0 64 64">
  <rect width="64" height="64" fill="#0A0A0A"/>
  <g transform="translate(2 20.37) scale(0.0968)" fill="#FFFF00">
    <path d="M313.83.2v62.59c0,.15-.17.25-.31.17-9.24-5.36-19.83-8.6-31.13-9.03-.86-.03-1.73-.05-2.6-.05-9.22,0-18,1.86-26.02,5.23v-3.28c0-.13-.12-.23-.25-.2-10.79,2.52-20.6,7.64-28.76,14.68v-10.73c0-.14-.15-.24-.28-.19-18.6,8.06-32.94,24.29-38.66,44.24-.06.22-.39.18-.39-.05v-17.3c0-.2-.27-.28-.38-.11-6.61,10.65-10.44,23.27-10.44,36.79s3.83,26.14,10.44,36.79c.11.17.38.09.38-.11v-17.3c0-.23.32-.27.39-.05,5.72,19.95,20.06,36.18,38.66,44.24.13.06.28-.04.28-.19v-10.3c0-.17.2-.26.32-.15,8.09,6.9,17.78,11.92,28.43,14.4.13.03.25-.07.25-.2v-2.98c0-.14.14-.24.27-.18,7.94,3.3,16.64,5.12,25.75,5.12,37.59,0,68.07-30.93,68.07-69.09,0-.02,0-.04,0-.06,0-1.08,0-117.33,0-122.71,0-.11-.09-.19-.2-.19h-33.64c-.11,0-.2.09-.2.2ZM224.77,143.93c0,.19-.25.28-.36.13-4.46-5.83-7.12-13.14-7.12-21.09s2.66-15.27,7.12-21.09c.12-.15.36-.07.36.13v41.93ZM306.68,143.94c-.51.67-1.04,1.32-1.6,1.96-.09.1-.17.2-.26.29-6.2,6.88-15.12,11.2-25.03,11.2s-19.46-4.63-25.68-11.94c-.12-.14-.35-.06-.35.13v7.9c0,.15-.16.25-.3.18-11.01-5.69-18.55-17.29-18.55-30.69s7.54-25,18.55-30.69c.13-.07.3.03.3.18v7.9c0,.19.23.27.35.13.54-.64,1.11-1.26,1.7-1.86.86-.88,1.78-1.7,2.73-2.48.42-.35.86-.68,1.3-1.01,5.6-4.14,12.49-6.59,19.95-6.59,18.73,0,33.91,15.41,33.91,34.42,0,7.9-2.63,15.17-7.03,20.97Z"/>
    <path d="M620.07,112.31c-.05-58.46-46.7-56.15-46.7-56.15-20.61,0-37.02,8.78-48.25,20.2-.12.13-.34.04-.34-.14v-17.84c0-.13-.13-.23-.25-.2-9.7,2.53-18.71,7.31-25.37,13.73-.08.07-.2.07-.28,0-10.08-9.75-22.04-15.75-37.19-15.75-20.55,0-36.93,8.73-48.16,20.11-.12.13-.34.04-.34-.14v-18.03c-5.99,1.62-11.57,4.19-16.59,7.55v-9.05c0-.11-.09-.2-.2-.2h-33.67c-.11,0-.2.09-.2.2v134.36c0,.11.09.2.2.2h33.67c.11,0,.2-.08.2-.19,0-4.38.11-81.89.11-82.32,0-8.37,7.1-15.24,15.61-17.56.13-.03.26.06.26.2v99.68c0,.11.09.2.2.2h17.55c.11,0,.2-.08.2-.19,0-4.36-.05-81.13-.07-82.32,0-10.34,10.82-18.41,21.76-18.41,12.19,0,22.07,9.88,22.07,22.07l.02,78.66c0,.11.09.2.2.2h33.67c.11,0,.2-.09.2-.2l.02-78.66c0-9.93,6.57-18.31,15.59-21.08.13-.04.26.06.26.2l-.03,99.54c0,.11.09.2.2.2h17.58c.11,0,.2-.08.2-.19,0-4.36-.05-81.36-.06-82.32,0-10.34,10.82-18.41,21.76-18.41,12.19,0,22.07,9.88,22.07,22.07l.02,78.66c0,.11.09.2.2.2h33.69c.11,0,.2-.09.2-.2v-78.66Z"/>
    <path d="M46.3,240.36h24.64c.11,0,.2-.09.2-.2v-58.91c0-.22-.3-.28-.38-.08l-24.64,58.91c-.06.13.04.28.18.28Z"/>
    <path d="M.38,206.32l14.87-35.91s.02-.1,0-.15L.39,132.94c-.08-.2-.39-.15-.39.07v73.23c0,.22.3.28.38.08Z"/>
    <path d="M18.38,240.36h24.64c.11,0,.2-.09.2-.2v-58.91c0-.22-.3-.28-.38-.08l-24.64,58.91c-.06.13.04.28.18.28Z"/>
    <path d="M184.2,56.17h-36.36c-.08,0-.15.05-.18.12l-28.97,69.29c-.07.16-.3.16-.37,0l-28.99-69.31c-.03-.07-.1-.12-.18-.12h-17.81c-.11,0-.2.09-.2.2v14.44c0,.22-.3.28-.38.08l-6.1-14.59c-.03-.07-.1-.12-.18-.12h-21.07c-.11,0-.2.09-.2.2v14.41c0,.22-.3.28-.38.08l-6.09-14.56c-.03-.07-.1-.12-.18-.12H.2c-.14,0-.24.15-.18.28l42.81,102.64c.08.2.38.14.38-.08v-64.96c0-.22.3-.28.38-.08l27.16,65.11c.08.2.38.14.38-.08v-57.18c0-.22.3-.28.38-.08l28.5,68.33s.02.1,0,.15l-29.22,69.87c-.06.13.04.28.18.28h36.48c.08,0,.15-.05.18-.12L184.38,56.45c.05-.13-.04-.28-.18-.28Z"/>
  </g>
</svg>
